<svg width="80" height="44" viewBox="0 0 80 44" fill="none" xmlns="http://www.w3.org/2000/svg">
<path d="M36.1386 30.1444L36.2399 30.1642C36.9082 30.2237 37.5765 30.3823 38.2043 30.6202C38.6701 30.7986 39.0549 31.1554 39.2574 31.5916C39.6625 32.3845 39.6827 33.3163 39.3182 34.1489C39.0144 34.7238 38.5081 35.1996 37.9005 35.4772C37.3335 35.7349 36.7462 35.8935 36.1183 35.9529C34.964 36.0521 33.8096 35.8538 32.7565 35.3582C32.1489 35.0807 31.4198 34.5851 31.0553 33.9507C30.7718 33.4749 30.792 32.8802 31.1161 32.444C31.6426 31.7303 32.7767 31.5916 33.6273 31.6114C34.4577 31.6709 35.2678 31.8096 36.0576 32.0475C36.3816 32.1466 36.6854 32.2854 36.9689 32.4638C37.0499 32.5431 37.0905 32.6423 37.0702 32.7612C36.9284 33.1775 35.8753 33.3956 35.5918 33.4551C34.7817 33.574 34.3564 33.2766 33.4451 32.9198C33.202 32.8207 32.9388 32.7612 32.6755 32.7216C32.2704 32.6819 31.7641 32.8009 31.6831 33.237C31.6426 33.4749 31.9261 33.6731 32.1287 33.7723C32.554 33.9705 33.04 34.0696 33.5058 34.0696C34.9437 34.0894 36.5436 33.8714 37.7183 33.0586C37.9005 32.9595 38.022 32.781 38.0423 32.5828C38.0423 32.1665 37.293 31.9088 37.293 31.9088C36.5031 31.5916 35.045 31.433 34.2957 31.3735C33.5058 31.314 32.2704 31.2149 31.9667 31.1554C31.6629 31.1158 31.3591 31.0563 31.0553 30.9374C30.7718 30.7986 30.549 30.5607 30.4477 30.2633C30.3465 29.7082 30.468 29.1333 30.792 28.6774C31.5819 27.587 33.4046 27.1509 34.7817 26.9923C36.0981 26.8337 38.2448 26.8337 39.541 27.5077C39.7435 27.6068 39.8447 27.706 39.8042 27.924C39.7232 28.3007 39.4194 28.5981 39.0549 28.6774C38.5486 28.7963 38.0423 28.8558 37.5157 28.8558C35.9563 28.9351 34.0526 28.8954 32.554 29.2919C32.4122 29.3117 32.2907 29.3712 32.1692 29.4505C31.9261 29.7082 32.5945 29.7677 32.7565 29.8074C32.797 29.8074 32.8172 29.8272 32.8577 29.8272L36.1386 30.1444ZM26.8024 23.3049C26.8024 23.3049 27.0656 22.9283 27.2682 22.6507C27.7542 22.0362 28.301 21.4811 28.8883 20.9656C29.0503 20.8269 29.2529 20.6683 29.2529 20.6683C29.2529 20.6683 28.9491 20.6881 28.7871 20.7278C28.382 20.8071 27.7947 21.1837 27.4909 21.4414C27.0049 21.8577 26.4783 22.512 26.7011 23.1067C26.7416 23.186 26.8024 23.3049 26.8024 23.3049ZM29.5161 24.0186C30.2655 23.9591 31.0148 23.7411 31.6629 23.3842C32.3109 23.0274 33.283 22.3137 33.1818 21.5009C33.1615 21.2432 32.9793 21.0251 32.7565 20.9458C32.4527 20.8269 32.3109 20.8467 31.9464 20.9458C31.7236 21.0053 31.5009 21.1044 31.2983 21.2234C30.387 21.7784 29.5769 22.4723 28.8883 23.2851C28.7466 23.4635 28.625 23.6618 28.5035 23.7807C28.4428 23.86 28.382 23.9393 28.382 23.9591C28.4023 24.0186 29.1921 24.0186 29.5161 24.0186ZM27.5517 25.4063C27.4504 25.5451 27.3694 25.6839 27.3087 25.8226C27.2682 25.9019 27.1871 25.9812 27.1264 26.0407C26.9644 26.1795 26.7213 26.1795 26.5796 26.0407C26.5796 26.0407 26.5796 26.0407 26.5593 26.0209C26.296 25.783 26.134 25.4262 26.1138 25.0693C26.1138 24.9107 26.1138 24.7719 26.1138 24.6133C26.0733 24.3953 25.8303 24.1772 25.729 23.9591C25.567 23.6618 25.486 23.3446 25.4657 23.0076C25.4252 22.1353 25.891 21.3423 26.4986 20.7079C27.1466 20.0537 27.9162 19.5383 28.7871 19.1814C29.6174 18.8444 30.8123 18.6065 31.7236 18.9237C32.0679 19.0427 32.3919 19.2409 32.635 19.5185C32.6755 19.5779 32.716 19.6176 32.7565 19.6572C32.8375 19.6771 32.8983 19.6969 32.9793 19.7167C33.3033 19.796 33.5868 19.9149 33.8501 20.1132C34.1539 20.3511 34.3767 20.6881 34.4577 21.0648C34.6399 21.8577 34.1539 22.7498 33.6273 23.2851C32.797 24.1574 31.7641 24.8512 30.63 25.3072C30.0224 25.5451 29.3946 25.664 28.7466 25.6442C28.5643 25.6244 28.382 25.5847 28.1998 25.5649C28.0377 25.5451 27.896 25.5054 27.734 25.446C27.6124 25.4262 27.5719 25.4063 27.5517 25.4063ZM28.6048 27.1905C28.6453 27.1905 28.7061 27.2104 28.7466 27.2302C29.1516 27.3888 29.3339 27.7654 29.4351 28.1619C29.6782 29.1135 29.7794 31.2149 29.8199 32.0475C29.8402 32.6621 29.8604 33.2766 29.9009 33.8912C29.9212 34.4066 29.9617 35.1005 29.8604 35.5763C29.8199 35.7745 29.6984 35.9529 29.5364 36.0521C29.2529 36.171 28.9491 36.1908 28.6453 36.1314C28.0377 36.0124 27.8352 35.6358 27.7542 35.041C27.5517 33.6533 27.6529 30.9175 27.7745 29.7479C27.815 29.3712 27.9567 28.1421 28.1592 27.6465C28.1998 27.4879 28.3415 27.1509 28.6048 27.1905ZM10.2361 29.51C10.2361 29.51 9.34499 29.5695 8.71718 29.6289C7.66407 29.7479 6.61095 29.9461 5.59835 30.2633C5.33507 30.3624 4.82876 30.5607 4.76801 30.8184C4.70725 31.0761 4.88952 31.2942 5.07179 31.5123C5.17305 31.6312 5.80087 32.2259 5.96289 32.3647C6.97549 33.1379 8.06911 33.7921 9.24373 34.3075C9.62853 34.4661 10.2361 34.6842 10.2361 34.6842C10.2361 34.6842 10.1956 32.9793 10.1956 31.2744C10.2158 30.3823 10.2361 29.51 10.2361 29.51ZM26.7213 30.184C26.7416 30.6598 26.7011 31.1554 26.6201 31.6312C26.5593 31.9484 26.4581 32.2656 26.3568 32.5828C26.215 32.9198 26.0328 33.237 25.8505 33.5542C25.4657 34.1886 24.9797 34.7437 24.4329 35.2393C22.8937 36.5477 20.5039 37.301 18.4382 37.5389C16.9396 37.7173 15.4409 37.6777 13.9625 37.42C13.4562 37.3208 12.7069 37.1622 12.7069 37.1622C12.7069 37.1622 12.7069 37.4596 12.6866 37.6579C12.6663 37.7966 12.6258 37.9552 12.5651 38.094C12.4638 38.2922 12.2613 38.4508 12.0183 38.4707C11.7145 38.55 11.3905 38.5301 11.0867 38.431C10.6209 38.2328 10.4589 37.7966 10.3576 37.301C10.2968 36.9045 10.2158 36.2107 10.2158 36.2107C10.2158 36.2107 9.87155 36.0521 9.56777 35.9133C8.69693 35.4772 7.84634 34.9815 7.0565 34.4066C6.85398 34.248 5.96289 33.5344 5.76036 33.3361C5.21356 32.8603 4.7275 32.2854 4.34271 31.6709C4.05918 31.1554 3.95792 30.6995 4.1807 30.1642C4.48448 29.4109 5.59835 28.836 6.34768 28.5188C7.31978 28.1421 8.31214 27.8447 9.345 27.6267C9.68928 27.587 10.2158 27.4879 10.2361 27.4681C10.2563 27.4681 10.2563 27.4482 10.2563 27.4482C10.2766 27.4284 10.2968 26.6751 10.2968 26.3976C10.2968 26.12 10.4994 24.3556 10.5601 23.9988C10.6006 23.8005 10.7424 23.0274 10.9044 22.8093C11.0259 22.6904 11.2082 22.6706 11.35 22.7697C12.16 23.2653 12.4233 25.0098 12.4841 25.8821C12.5246 26.4174 12.5448 27.2302 12.5448 27.2302C12.5448 27.2302 13.4764 27.2104 14.0637 27.2302C14.6511 27.25 15.2384 27.3293 15.8257 27.4284C16.575 27.5474 18.0332 27.8646 18.8635 28.2809C19.5521 28.6179 20.2002 29.1928 20.4027 29.8074C20.6052 30.2831 20.5647 30.8184 20.2812 31.2545C19.9571 31.8295 19.3496 32.2061 18.6812 32.2656C18.499 32.2854 17.7699 32.1863 17.5471 32.0079C17.4661 31.9286 17.4661 31.8295 17.5269 31.7303C17.7091 31.6114 17.8914 31.5123 18.0737 31.433C18.1749 31.3933 18.2559 31.3338 18.337 31.2545C18.499 31.1158 18.6407 30.9572 18.6407 30.7788C18.6205 30.5409 18.3572 30.4021 18.1142 30.303C16.9801 29.8668 14.6916 29.4902 13.5979 29.4307C13.1727 29.4109 12.5448 29.391 12.5448 29.391L12.6663 35.3384C12.6663 35.3384 13.1727 35.4375 13.5777 35.497C13.8005 35.5366 14.7726 35.6159 15.0359 35.6159C17.0003 35.6754 19.1875 35.497 21.0102 34.6644C21.8001 34.3273 22.4886 33.8317 23.076 33.237C23.8253 32.3845 24.1898 31.2744 24.0886 30.1444C23.9873 28.8756 23.0557 27.3689 22.3266 26.4372C20.4027 24.0186 17.1016 22.0163 14.1853 20.8467C11.3095 19.6572 8.25138 18.9832 5.13255 18.8444C4.32246 18.8246 2.54027 18.8444 1.64918 19.1021C1.52766 19.1418 1.3859 19.1814 1.26438 19.2013C1.16312 19.2211 1.06186 19.2607 0.980855 19.3202C0.960603 19.34 0.960602 19.34 0.94035 19.3599C0.920098 19.3797 1.00111 19.3797 1.04161 19.4193C1.14287 19.459 1.52766 19.4788 1.75044 19.5185C1.93271 19.5383 2.09472 19.6374 2.19598 19.7762C2.27699 19.8753 2.27699 20.0141 2.19598 20.1132C1.99346 20.3511 1.22388 20.3114 0.899846 20.2718C0.575812 20.2321 0.110012 20.1132 0.0290032 19.8158C-0.0722575 19.459 0.110012 19.122 0.292281 18.8048C0.65682 18.1704 1.18338 17.8334 1.97321 17.6351C3.12758 17.3378 4.30221 17.1593 5.49709 17.0999C7.84634 17.0206 10.0741 17.4171 12.3626 18.0911C13.8207 18.5272 15.2384 19.0823 16.6155 19.7167C17.6889 20.2321 18.7217 20.8071 19.7141 21.4216C19.9571 21.5802 21.4355 22.6309 21.6583 22.8291C22.1241 23.2058 22.7519 23.7609 23.1975 24.197C24.0683 25.0495 25.1417 26.3381 25.6682 27.3689C25.7897 27.6068 25.891 27.8646 26.053 28.1421C26.1745 28.4196 26.2961 28.6972 26.3771 28.9946C26.4176 29.1532 26.4783 29.4109 26.4783 29.4109C26.6403 29.6686 26.6808 29.9263 26.7213 30.184ZM56.2895 28.8756C55.1959 29.1333 52.2998 29.2721 52.2998 29.2721L51.9353 30.3823C52.7656 30.3228 53.596 30.303 54.4263 30.3624C54.4263 30.3624 54.7706 30.3228 54.8111 30.7391C54.8111 31.0167 54.8111 31.2744 54.7706 31.5519C54.7706 31.5519 54.7503 31.8096 54.3858 31.8691C53.9807 31.9286 51.267 32.0277 51.267 32.0277L50.8214 33.4947C50.8214 33.4947 50.6594 33.8317 51.0239 33.7326C51.3885 33.6335 54.2238 33.118 54.5883 33.1973C54.9529 33.2766 55.4187 33.8119 55.2971 34.2877C55.1351 34.8824 52.2998 36.6468 50.5581 36.5279C50.5581 36.5279 49.6468 36.5873 48.8772 35.378C48.1684 34.2282 49.1405 32.0674 49.1405 32.0674C49.1405 32.0674 48.6949 31.0563 49.019 30.7193C49.019 30.7193 49.2215 30.5409 49.7886 30.5012L50.4974 29.0937C50.4974 29.0937 49.7075 29.1532 49.2215 28.5782C48.7759 28.043 48.7354 27.7853 49.0797 27.6267C49.424 27.4681 52.7454 26.8535 55.0339 26.9328C55.0339 26.9328 55.8237 26.8535 56.5123 28.2016C56.5123 28.2016 56.8363 28.7567 56.2895 28.8756ZM47.7026 34.3075C47.4191 34.9815 46.6292 35.6952 45.6774 35.2591C44.7255 34.823 43.2471 31.7898 43.2471 31.7898C43.2471 31.7898 42.68 30.6598 42.5585 30.6995C42.5585 30.6995 42.437 30.4814 42.356 31.7105C42.275 32.9396 42.3763 35.3186 41.87 35.6952C41.5054 36.0124 40.9384 35.9728 40.6346 35.6159C40.5941 35.5763 40.5738 35.5366 40.5333 35.4772C40.27 35.041 40.1485 34.0101 40.2903 32.2061C40.4321 30.4021 40.8979 28.4593 41.4447 27.8646C41.9915 27.2698 42.437 27.706 42.599 27.8646C42.599 27.8646 43.3281 28.5188 44.5432 30.4417L44.7458 30.7986C44.7458 30.7986 45.8394 32.6026 45.9609 32.6026C45.9609 32.6026 46.0419 32.6819 46.1229 32.6224C46.2444 32.5828 46.1837 32.0079 46.1837 32.0079C46.1837 32.0079 45.9609 30.0453 44.9483 26.6949C44.8673 26.4372 44.847 26.1597 44.9078 25.8821C45.009 25.4856 45.4141 25.664 45.4141 25.664C45.4141 25.664 46.9735 26.4372 47.7228 28.9153C48.4722 31.3933 48.0064 33.6533 47.7026 34.3075ZM64.4714 32.8207C63.7625 34.03 61.7576 36.5675 59.1045 35.9728C58.0717 38.3121 57.3831 40.7901 57.0591 43.3078C57.0591 43.3078 56.9578 43.9224 56.4515 43.7043C55.9452 43.5259 55.0946 42.6933 54.9124 41.5236C54.7301 39.9971 55.4186 37.42 56.8363 34.4661C56.4313 33.8119 56.1477 32.8802 56.3705 31.5321C56.3705 31.5321 56.735 29.054 59.2868 26.8139C59.2868 26.8139 59.5906 26.5561 59.7729 26.6354C59.9551 26.7147 59.8741 27.5275 59.7121 27.924C59.5501 28.3205 58.416 30.2435 58.416 30.2435C58.416 30.2435 57.7072 31.5321 57.9097 32.563C59.2463 30.5607 62.2841 26.4967 64.1676 27.7853C64.7954 28.2214 65.0992 29.1928 65.0992 30.2237C65.1194 31.1158 64.8967 32.0079 64.4714 32.8207ZM63.9043 29.6289C63.9043 29.6289 63.803 28.836 62.993 29.7082C61.8386 30.9175 60.8665 32.2854 60.0766 33.7326C60.9475 33.6335 61.7576 33.2965 62.4462 32.781C62.9322 32.3647 64.0866 31.1951 63.9043 29.6289ZM79.0934 29.4505H74.2329C74.1316 27.8249 73.9291 26.2191 73.6253 24.6332C73.5848 24.4746 73.4431 24.3358 73.2608 24.3358H72.1469C72.0457 24.3358 71.9647 24.3755 71.8837 24.4548C71.8229 24.5341 71.8026 24.6332 71.8229 24.7323C72.1469 26.2984 72.3495 27.8646 72.4305 29.4703L67.7522 29.4703C67.5294 29.4703 67.3472 29.6289 67.3472 29.847V29.8668V30.8581C67.3472 31.0761 67.5294 31.2545 67.7522 31.2545L72.5115 31.2545C72.5115 31.4924 72.5115 31.7105 72.5115 31.9286C72.5115 33.237 72.4507 34.5652 72.3089 35.8538C72.2887 36.0521 72.4305 36.2305 72.633 36.2503H73.7064C73.9089 36.2503 74.0709 36.0917 74.0911 35.8935C74.2329 34.5652 74.2937 33.237 74.2937 31.9088C74.2937 31.7105 74.2937 31.4924 74.2937 31.2347H79.0934C79.3162 31.2347 79.4985 31.0563 79.4985 30.8382V29.847C79.5187 29.6091 79.3364 29.4307 79.0934 29.4505Z" fill="white"/>
<path d="M72.4834 22.1729C65.3951 4.17356 45.5274 -4.46528 28.1252 2.85757C21.7972 5.51078 16.3937 10.0743 12.6133 15.9326C12.5516 16.0387 12.5311 16.1661 12.5722 16.2934C12.6133 16.4208 12.716 16.5057 12.8187 16.5481L13.7022 16.8665C13.7638 16.8877 13.8049 16.8877 13.8665 16.8877C14.0309 16.8877 14.1953 16.8028 14.2775 16.6543C24.2627 1.45668 44.3358 -2.51252 59.067 7.82438C64.2035 11.4327 68.2304 16.4844 70.6548 22.4064C70.737 22.5762 70.9014 22.7036 71.0863 22.7036H72.1546C72.3601 22.7036 72.5245 22.5338 72.5245 22.3215C72.5039 22.2578 72.5039 22.2154 72.4834 22.1729Z" fill="url(#paint0_radial_1111_46139)"/>
<defs>
<radialGradient id="paint0_radial_1111_46139" cx="0" cy="0" r="1" gradientUnits="userSpaceOnUse" gradientTransform="translate(71.5136 22.6577) scale(57.269 59.1644)">
<stop offset="0.01" stop-color="white"/>
<stop offset="0.04" stop-color="#C6FFFF"/>
<stop offset="0.09" stop-color="#80FFFF"/>
<stop offset="0.13" stop-color="#49FFFF"/>
<stop offset="0.17" stop-color="#21FFFF"/>
<stop offset="0.2" stop-color="#09FFFF"/>
<stop offset="0.22" stop-color="#00FFFF"/>
<stop offset="0.28" stop-color="#01F6FF" stop-opacity="0.96"/>
<stop offset="0.39" stop-color="#04DEFF" stop-opacity="0.87"/>
<stop offset="0.53" stop-color="#08B6FF" stop-opacity="0.71"/>
<stop offset="0.69" stop-color="#0E7FFF" stop-opacity="0.5"/>
<stop offset="0.87" stop-color="#1639FF" stop-opacity="0.22"/>
<stop offset="1" stop-color="#1C00FF" stop-opacity="0"/>
</radialGradient>
</defs>
</svg>
